<?xml version="1.0" standalone="no"?>
<!DOCTYPE svg PUBLIC "-//W3C//DTD SVG 20010904//EN"
 "http://www.w3.org/TR/2001/REC-SVG-20010904/DTD/svg10.dtd">
<svg version="1.0" xmlns="http://www.w3.org/2000/svg"
 width="1004.000000pt" height="1280.000000pt" viewBox="0 0 1004.000000 1280.000000"
 preserveAspectRatio="xMidYMid meet">
<metadata>
Created by potrace 1.15, written by Peter Selinger 2001-2017
</metadata>
<g transform="translate(0.000000,1280.000000) scale(0.100000,-0.100000)"
fill="#000000" stroke="none">
<path d="M8498 12466 c-582 -182 -1062 -336 -1067 -341 -4 -6 -79 -145 -166
-311 -139 -266 -161 -302 -188 -312 -21 -8 -35 -8 -41 -2 -16 16 -22 12 -65
-41 -33 -42 -38 -54 -29 -68 9 -15 -4 -36 -83 -132 -276 -334 -698 -906 -814
-1104 -13 -22 -204 -422 -425 -890 -221 -467 -403 -851 -404 -853 -4 -4 -150
-42 -831 -217 -291 -75 -694 -179 -895 -230 -201 -52 -592 -153 -870 -224
-379 -98 -506 -127 -512 -118 -4 6 -119 197 -254 424 -135 227 -253 414 -262
417 -10 3 -177 6 -373 8 -316 3 -359 1 -375 -13 -33 -28 -361 -298 -599 -493
-126 -104 -234 -192 -239 -196 -7 -7 326 -674 342 -684 4 -2 90 11 191 28
l183 32 37 40 c20 22 96 110 169 197 73 86 136 157 140 157 6 0 290 -226 320
-254 11 -11 -2 -44 -74 -187 -190 -379 -368 -813 -519 -1259 l-72 -216 263
-354 264 -354 0 -203 0 -203 -105 -338 c-59 -185 -121 -386 -140 -447 -19 -60
-90 -289 -159 -507 l-123 -397 13 -93 c7 -51 27 -194 44 -318 17 -124 35 -254
40 -290 5 -36 23 -166 40 -290 17 -124 40 -290 51 -370 10 -80 24 -172 29
-206 6 -33 10 -135 10 -227 0 -91 3 -168 8 -170 4 -3 93 -21 197 -41 l190 -35
184 8 c195 9 200 10 201 61 0 14 9 86 20 160 18 124 19 136 4 147 -19 14 -21
-31 56 1138 6 83 15 224 20 315 16 265 15 261 66 311 l44 43 0 -90 c0 -76 6
-110 39 -219 22 -72 110 -364 196 -650 86 -286 177 -587 201 -668 25 -81 53
-193 63 -248 10 -55 20 -101 22 -103 2 -2 87 -18 188 -36 192 -34 209 -35 445
-13 l69 6 -6 56 c-4 31 -15 148 -27 261 -11 113 -25 248 -30 300 -6 52 -33
325 -60 605 -27 281 -54 549 -60 596 -21 179 -62 92 422 906 237 401 438 735
445 744 9 11 39 19 91 23 47 5 83 13 94 23 15 13 89 19 455 33 241 10 441 15
444 12 4 -4 12 -135 18 -292 7 -157 16 -377 21 -490 5 -113 14 -311 20 -440
22 -509 31 -704 40 -915 5 -121 14 -323 20 -450 5 -126 15 -333 20 -460 6
-126 15 -331 20 -455 5 -124 13 -278 16 -342 7 -116 6 -118 -15 -118 -25 0
-25 -13 -8 -270 l12 -164 135 -22 c74 -13 221 -36 325 -53 l190 -31 224 30
c123 16 225 31 227 33 2 1 8 81 14 177 5 96 13 190 16 208 4 26 0 37 -16 50
l-22 18 16 124 c19 141 87 680 115 897 10 79 20 145 22 147 2 2 39 -210 83
-472 47 -283 75 -477 69 -479 -6 -2 -17 -9 -26 -16 -14 -11 -10 -33 35 -212
28 -110 52 -202 55 -205 2 -2 137 -16 301 -31 l297 -26 188 44 187 45 0 57 c0
32 -3 119 -7 194 -5 122 -8 137 -24 137 -16 0 -17 11 -13 128 2 70 9 323 14
562 10 414 18 749 40 1625 5 215 14 595 20 845 6 250 13 523 16 607 l6 152 42
6 c22 3 66 9 96 13 l55 7 5 230 5 230 145 140 c470 455 614 590 733 685 4 4
-201 444 -457 978 l-465 972 258 700 258 700 401 -261 c296 -192 404 -268 408
-285 3 -12 13 -25 22 -29 10 -3 151 -58 315 -121 164 -63 303 -114 309 -112 6
2 72 107 147 233 106 178 142 231 159 233 12 2 22 5 22 7 0 1 -31 92 -69 201
-38 110 -108 310 -155 446 -47 136 -86 253 -86 259 0 7 8 18 17 25 17 12 17
15 -2 69 -15 46 -26 60 -51 73 -31 14 -37 27 -108 231 -67 195 -122 352 -370
1062 -66 191 -73 216 -59 231 13 15 3 23 -116 95 -72 43 -129 83 -127 89 2 6
151 239 330 517 179 278 329 513 332 521 4 10 1 16 -7 15 -8 0 -490 -150
-1071 -333z"/>
</g>
</svg>
